<svg xmlns="http://www.w3.org/2000/svg" width="14" height="8" viewBox="0 0 14 8">
  <defs>
    <style>
      .cls-1 {
        fill: #fff;
        fill-rule: evenodd;
      }
    </style>
  </defs>
  <path id="eye" class="cls-1" d="M551,1160c3.866,0,7,4,7,4s-3.134,4-7,4-7-4-7-4S547.134,1160,551,1160Zm0,0.67c3.093,0,5.6,3.33,5.6,3.33s-2.507,3.33-5.6,3.33-5.6-3.33-5.6-3.33S547.907,1160.67,551,1160.67Zm0,0.13a3.2,3.2,0,1,1-3.111,3.2A3.155,3.155,0,0,1,551,1160.8Z" transform="translate(-544 -1160)"/>
</svg>
